#N canvas 632 70 632 429 10;
#X declare -path syncjams;
#X text 14 85 mins;
#X text 320 84 secs;
#X obj 6 7 bng 50 250 50 0 go empty empty 17 7 0 10 -258113 -1 -1;
#N canvas 165 524 548 465 guts 1;
#X floatatom 37 159 7 0 0 0 tick - -, f 7;
#X floatatom 86 179 7 0 0 0 node-id - -, f 7;
#X obj 37 127 route tick node-id node-list joined left message state
init-event, f 67;
#X obj 86 206 syncjams-id-symbol;
#X symbolatom 86 228 10 0 0 0 id-symbol-> - -, f 10;
#X msg 37 60 set-state /start 1;
#X obj 186 159 print joined;
#X obj 37 95 syncjams \$0/syncer \, bpm 60 \, namespace syncjams \,
port 23232;
#X obj 229 275 -;
#X obj 290 274 i;
#X floatatom 229 307 5 0 0 0 - - -, f 5;
#X obj 290 248 bng 15 250 50 0 empty empty empty 17 7 0 10 -262144
-1 -1;
#X obj 256 274 + 11;
#X text 309 248 START/RESET;
#X obj 229 332 / 60;
#X obj 229 356 int;
#X obj 281 346 -;
#X floatatom 339 297 5 0 0 0 - - -, f 5;
#X obj 296 318 * 60;
#X text 318 275 10 secs countdown;
#X obj 229 388 s mins;
#X floatatom 296 297 5 0 0 0 - - -, f 5;
#X obj 281 386 s secs;
#X obj 37 26 r go;
#X obj 274 58 r pause;
#X obj 229 221 spigot 0;
#X obj 274 203 tgl 15 0 empty empty empty 17 7 0 10 -262144 -1 -1 1
1;
#X text 4 351 numberbox 300 200 mins xx -10 60 0;
#X text 4 331 numberbox 300 200 mins xx -1 60 0;
#X msg 419 46 \; pd dsp 0;
#X obj 419 22 loadbang;
#X obj 383 215 syncjams-tick;
#X obj 383 159 syncjams-state /start;
#X floatatom 431 246 5 0 0 0 - - -, f 5;
#X floatatom 395 245 5 0 0 0 - - -, f 5;
#X floatatom 473 245 5 0 0 0 - - -, f 5;
#X msg 110 22 get-node-list;
#X obj 110 154 print nodes;
#X connect 0 0 25 0;
#X connect 1 0 3 0;
#X connect 2 0 0 0;
#X connect 2 1 1 0;
#X connect 2 2 37 0;
#X connect 2 3 6 0;
#X connect 3 0 4 0;
#X connect 5 0 7 0;
#X connect 7 0 2 0;
#X connect 7 0 32 0;
#X connect 8 0 10 0;
#X connect 9 0 12 0;
#X connect 10 0 14 0;
#X connect 10 0 16 0;
#X connect 11 0 9 0;
#X connect 12 0 8 1;
#X connect 14 0 15 0;
#X connect 15 0 20 0;
#X connect 15 0 21 0;
#X connect 16 0 17 0;
#X connect 16 0 22 0;
#X connect 18 0 16 1;
#X connect 21 0 18 0;
#X connect 23 0 5 0;
#X connect 24 0 26 0;
#X connect 25 0 9 1;
#X connect 25 0 8 0;
#X connect 26 0 25 1;
#X connect 30 0 29 0;
#X connect 31 1 34 0;
#X connect 31 2 33 0;
#X connect 31 3 35 0;
#X connect 32 0 31 0;
#X connect 32 1 11 0;
#X connect 36 0 7 0;
#X restore 476 44 pd guts;
#X obj 12 110 numberbox 300 200 mins xx -1 60 0;
#X obj 321 110 numberbox 300 200 secs xxx -10 60 0;
#X text 542 323 version a0.1;
#X obj 87 7 tgl 50 0 pause empty empty 17 7 0 10 -260097 -258113 -1
1 1;
#X obj 476 67 declare -path syncjams;
#X text 15 321 SyncChrono by ixi-audio.net license GPL;
