#N canvas 632 70 632 429 10;
#X declare -path syncjams;
#X text 14 133 mins;
#X text 320 132 secs;
#X obj 12 37 bng 75 250 50 0 go empty empty 17 7 0 10 -258113 -1 -1
;
#N canvas 458 266 464 465 guts 0;
#X obj 37 108 syncjams \$0/syncer \, bpm 60 \, namespace syncjams \,
port 23232;
#X obj 169 278 -;
#X obj 230 277 i;
#X floatatom 169 310 5 0 0 0 - - -, f 5;
#X obj 230 251 bng 15 250 50 0 empty empty empty 17 7 0 10 -262144
-1 -1;
#X obj 196 277 + 11;
#X text 249 251 START/RESET;
#X obj 169 335 / 60;
#X obj 169 359 int;
#X obj 221 349 -;
#X floatatom 279 300 5 0 0 0 - - -, f 5;
#X obj 236 321 * 60;
#X text 258 278 10 secs countdown;
#X obj 169 391 s mins;
#X floatatom 236 300 5 0 0 0 - - -, f 5;
#X obj 221 389 s secs;
#X obj 37 8 r go;
#X obj 214 38 r pause;
#X obj 169 224 spigot 0;
#X obj 214 206 tgl 15 0 empty empty empty 17 7 0 10 -262144 -1 -1 1
1;
#X msg 335 57 \; pd dsp 0;
#X obj 335 33 loadbang;
#X obj 37 164 syncjams-tick;
#X obj 37 137 syncjams-state /start;
#X floatatom 87 189 5 0 0 0 - - -, f 5;
#X floatatom 49 188 5 0 0 0 - - -, f 5;
#X msg 96 50 get-state /start;
#X msg 37 80 set-state /start \$1;
#X obj 37 55 f;
#X obj 249 205 t b f;
#X floatatom 276 235 5 0 0 0 - - -, f 5;
#X obj 96 6 loadbang;
#X obj 96 27 delay 1000;
#X obj 290 413 declare -path syncjams;
#X text 152 5 count already running? get start tick;
#X connect 0 0 23 0;
#X connect 1 0 3 0;
#X connect 2 0 5 0;
#X connect 3 0 7 0;
#X connect 3 0 9 0;
#X connect 4 0 2 0;
#X connect 5 0 1 1;
#X connect 7 0 8 0;
#X connect 8 0 13 0;
#X connect 8 0 14 0;
#X connect 9 0 10 0;
#X connect 9 0 15 0;
#X connect 11 0 9 1;
#X connect 14 0 11 0;
#X connect 16 0 28 0;
#X connect 17 0 19 0;
#X connect 18 0 2 1;
#X connect 18 0 1 0;
#X connect 19 0 18 1;
#X connect 21 0 20 0;
#X connect 22 1 25 0;
#X connect 22 2 24 0;
#X connect 23 0 22 0;
#X connect 23 1 29 0;
#X connect 24 0 18 0;
#X connect 24 0 28 1;
#X connect 26 0 0 0;
#X connect 27 0 0 0;
#X connect 28 0 27 0;
#X connect 29 0 4 0;
#X connect 29 1 2 1;
#X connect 29 1 30 0;
#X connect 31 0 32 0;
#X connect 32 0 26 0;
#X restore 574 112 pd guts;
#X obj 12 150 numberbox 300 200 mins xx -1 60 0;
#X obj 321 150 numberbox 300 200 secs xxx -10 60 0;
#X text 542 363 version a0.1;
#X obj 137 37 tgl 75 0 pause empty empty 17 7 0 10 -260097 -258113
-1 1 1;
#X text 15 361 Synclock by ixi-audio.net license GPL;
#X text 11 19 reset;
#X text 136 18 start / join;
