#N canvas 632 70 632 429 10;
#X declare -path syncjams;
#X text 14 133 mins;
#X text 320 132 secs;
#N canvas 362 204 596 548 guts 0;
#X obj 37 128 syncjams \$0/syncer \, bpm 60 \, namespace syncjams \,
port 23232;
#X obj 169 354 -;
#X obj 230 353 i;
#X floatatom 169 380 5 0 0 0 - - -, f 5;
#X obj 230 321 bng 15 250 50 0 empty empty empty 17 7 0 10 -262144
-1 -1;
#X obj 196 353 + 11;
#X text 249 321 START/RESET;
#X obj 169 405 / 60;
#X obj 169 429 int;
#X obj 238 417 -;
#X floatatom 250 440 5 0 0 0 - - -, f 5;
#X obj 253 395 * 60;
#X text 258 354 10 secs countdown;
#X obj 169 461 s mins;
#X floatatom 253 376 5 0 0 0 - - -, f 5;
#X obj 238 461 s secs;
#X msg 335 57 \; pd dsp 0;
#X obj 335 33 loadbang;
#X obj 37 234 syncjams-tick;
#X floatatom 87 259 5 0 0 0 - - -, f 5;
#X floatatom 49 258 5 0 0 0 - - -, f 5;
#X obj 37 75 f;
#X obj 230 290 t b f;
#X floatatom 268 292 5 0 0 0 - - -, f 5;
#X obj 106 6 loadbang;
#X obj 106 27 delay 1000;
#X obj 295 457 declare -path syncjams;
#X text 162 5 count already running? get start tick;
#X msg 106 73 set-state /BPM 60;
#X msg 131 380 0;
#X obj 37 207 syncjams-state /reset;
#X msg 37 100 set-state /reset \$1;
#X obj 37 8 r reset;
#X obj 169 301 spigot 1;
#X msg 106 50 get-state /reset;
#X obj 37 43 select 1;
#X floatatom 385 278 5 0 0 0 - - -, f 5;
#X floatatom 332 264 5 0 0 0 - - -, f 5;
#X msg 330 201 0;
#X obj 337 232 moses 1;
#X obj 151 236 moses 1;
#X msg 231 243 1;
#X connect 0 0 30 0;
#X connect 1 0 3 0;
#X connect 2 0 5 0;
#X connect 3 0 7 0;
#X connect 3 0 9 0;
#X connect 4 0 2 0;
#X connect 5 0 1 1;
#X connect 7 0 8 0;
#X connect 8 0 13 0;
#X connect 8 0 14 0;
#X connect 9 0 10 0;
#X connect 9 0 15 0;
#X connect 11 0 9 1;
#X connect 14 0 11 0;
#X connect 17 0 16 0;
#X connect 18 1 20 0;
#X connect 18 2 19 0;
#X connect 19 0 21 1;
#X connect 19 0 33 0;
#X connect 21 0 31 0;
#X connect 22 0 4 0;
#X connect 22 1 2 1;
#X connect 22 1 23 0;
#X connect 24 0 25 0;
#X connect 25 0 34 0;
#X connect 28 0 0 0;
#X connect 29 0 3 0;
#X connect 30 0 18 0;
#X connect 30 1 40 0;
#X connect 31 0 0 0;
#X connect 32 0 35 0;
#X connect 33 0 1 0;
#X connect 33 0 2 1;
#X connect 34 0 0 0;
#X connect 34 0 28 0;
#X connect 35 0 21 0;
#X connect 35 1 31 0;
#X connect 38 0 39 0;
#X connect 39 0 37 0;
#X connect 39 1 36 0;
#X connect 40 0 3 0;
#X connect 40 0 33 1;
#X connect 40 1 22 0;
#X connect 40 1 41 0;
#X connect 41 0 33 1;
#X restore 574 112 pd guts;
#X obj 12 150 numberbox 300 200 mins xx -1 60 0;
#X obj 321 150 numberbox 300 200 secs xxx -10 60 0;
#X text 542 363 version a0.1;
#X obj 14 37 tgl 75 0 reset empty empty 17 7 0 10 -260097 -258113 -1
0 1;
#X text 15 361 Synclock by ixi-audio.net license GPL;
#X text 13 18 start;
