#N canvas 771 50 500 613 10;
#X text 8 127 mins;
#X obj 9 97 nbx 5 30 -1e+37 1e+37 0 0 empty mins empty 0 -8 0 20 -260097
-1 -1 0 256;
#X text 126 127 secs;
#X obj 125 97 nbx 5 30 -1e+37 1e+37 0 0 empty secs empty 0 -8 0 20
-260097 -1 -1 -4 256;
#X obj 6 7 bng 50 250 50 0 go empty empty 17 7 0 10 -258113 -1 -1;
#N canvas 2 50 450 300 guts 0;
#X floatatom 37 159 7 0 0 0 tick - -, f 7;
#X floatatom 86 179 7 0 0 0 node-id - -, f 7;
#X obj 37 127 route tick node-id node-list joined left message state
init-event, f 67;
#X obj 86 206 syncjams-id-symbol;
#X symbolatom 86 228 10 0 0 0 id-symbol-> - -, f 10;
#X msg 37 60 set-state /start 1;
#X msg 173 17 set-state /BPM 60;
#X obj 186 159 print joined;
#X obj 288 183 nbx 8 14 -1e+37 1e+37 0 0 empty empty empty 0 -8 0 10
-262144 -1 -1 6.38689e+06 256;
#X obj 336 151 unpack f s f;
#X obj 439 217 print bad;
#X symbolatom 370 174 10 0 0 0 - - -, f 10;
#X obj 370 195 route symbol;
#X obj 37 95 syncjams \$0/syncer \, bpm 60 \, namespace syncjams \,
port 23232;
#X obj 229 275 -;
#X obj 290 274 i;
#X floatatom 229 307 5 0 0 0 - - -, f 5;
#X obj 290 248 bng 15 250 50 0 empty empty empty 17 7 0 10 -262144
-1 -1;
#X obj 256 274 + 11;
#X text 309 248 START/RESET;
#X obj 229 332 / 60;
#X obj 229 356 int;
#X obj 281 346 -;
#X floatatom 339 297 5 0 0 0 - - -, f 5;
#X obj 296 318 * 60;
#X text 318 275 10 secs countdown;
#X obj 229 388 s mins;
#X floatatom 296 297 5 0 0 0 - - -, f 5;
#X obj 281 386 s secs;
#X obj 37 26 r go;
#X connect 0 0 14 0;
#X connect 0 0 15 1;
#X connect 1 0 3 0;
#X connect 2 0 0 0;
#X connect 2 1 1 0;
#X connect 2 3 7 0;
#X connect 2 6 9 0;
#X connect 3 0 4 0;
#X connect 5 0 13 0;
#X connect 6 0 13 0;
#X connect 9 0 8 0;
#X connect 9 1 11 0;
#X connect 9 1 12 0;
#X connect 12 0 17 0;
#X connect 12 1 10 0;
#X connect 13 0 2 0;
#X connect 14 0 16 0;
#X connect 15 0 18 0;
#X connect 16 0 20 0;
#X connect 16 0 22 0;
#X connect 17 0 15 0;
#X connect 18 0 14 1;
#X connect 20 0 21 0;
#X connect 21 0 26 0;
#X connect 21 0 27 0;
#X connect 22 0 23 0;
#X connect 22 0 28 0;
#X connect 24 0 22 1;
#X connect 27 0 24 0;
#X connect 29 0 5 0;
#X restore 6 164 pd guts;
