#N canvas 632 70 632 429 10;
#X declare -path syncjams;
#X text 14 133 mins;
#X text 320 132 secs;
#N canvas 89 201 506 527 guts 1;
#X obj 37 160 syncjams \$0/syncer \, bpm 60 \, namespace syncjams \,
port 23232;
#X obj 160 355 -;
#X obj 231 354 i;
#X floatatom 160 381 5 0 0 0 - - -, f 5;
#X obj 231 328 bng 15 250 50 0 empty empty empty 17 7 0 10 -262144
-1 -1;
#X obj 160 406 / 60;
#X obj 160 430 int;
#X obj 229 418 -;
#X floatatom 241 441 5 0 0 0 - - -, f 5;
#X obj 244 396 * 60;
#X obj 160 462 s mins;
#X floatatom 244 377 5 0 0 0 - - -, f 5;
#X obj 229 462 s secs;
#X msg 314 24 \; pd dsp 0;
#X obj 37 244 syncjams-tick;
#X floatatom 87 269 5 0 0 0 - - -, f 5;
#X floatatom 49 268 5 0 0 0 - - -, f 5;
#X obj 37 113 f;
#X obj 231 304 t b f;
#X obj 106 6 loadbang;
#X obj 106 29 delay 1000;
#X obj 340 441 declare -path syncjams;
#X text 162 5 count already running? get start tick;
#X msg 106 77 set-state /BPM 60;
#X obj 37 216 syncjams-state /reset;
#X msg 37 134 set-state /reset \$1;
#X obj 37 8 r reset;
#X obj 87 295 spigot 1;
#X msg 106 55 get-state /reset;
#X obj 37 43 select 1;
#X obj 160 249 moses 1;
#X msg 199 277 1;
#X text 212 57 < try to join a running chronometer if any;
#X text 220 78 < just in case;
#X text 264 326 RESET;
#X text 259 355 10 secs countdown on reset;
#X msg 225 234 set \$1;
#X obj 225 257 s reset_r;
#X text 280 234 display state in GUI;
#X msg 225 129 1;
#X text 255 130 start ON;
#X obj 37 191 syncjams-state /reset_to;
#X msg 336 109 set-state /reset_to \$1;
#X obj 336 87 r reset_to;
#X msg 234 185 set \$1;
#X text 289 185 display state in GUI;
#X obj 234 208 s reset_to_r;
#X obj 187 354 - -11;
#X text 119 495 numberbox 150 75 reset_to_r reset_to -60 60 -10;
#X msg 106 100 get-state /reset_to;
#X obj 178 212 - 1;
#X msg 52 427 \; pd dsp 0;
#X obj 52 378 loadbang;
#X obj 52 402 delay 1000;
#X connect 0 0 41 0;
#X connect 1 0 3 0;
#X connect 2 0 47 0;
#X connect 3 0 5 0;
#X connect 3 0 7 0;
#X connect 4 0 2 0;
#X connect 5 0 6 0;
#X connect 6 0 10 0;
#X connect 6 0 11 0;
#X connect 7 0 8 0;
#X connect 7 0 12 0;
#X connect 9 0 7 1;
#X connect 11 0 9 0;
#X connect 14 1 16 0;
#X connect 14 2 15 0;
#X connect 15 0 17 1;
#X connect 15 0 27 0;
#X connect 17 0 25 0;
#X connect 18 0 4 0;
#X connect 18 1 2 1;
#X connect 19 0 20 0;
#X connect 19 0 13 0;
#X connect 19 0 39 0;
#X connect 20 0 28 0;
#X connect 23 0 0 0;
#X connect 23 0 49 0;
#X connect 24 0 14 0;
#X connect 24 1 30 0;
#X connect 24 1 36 0;
#X connect 25 0 0 0;
#X connect 26 0 29 0;
#X connect 27 0 1 0;
#X connect 27 0 2 1;
#X connect 28 0 0 0;
#X connect 28 0 23 0;
#X connect 29 0 17 0;
#X connect 29 1 25 0;
#X connect 30 0 3 0;
#X connect 30 0 27 1;
#X connect 30 1 18 0;
#X connect 30 1 31 0;
#X connect 31 0 27 1;
#X connect 36 0 37 0;
#X connect 39 0 36 0;
#X connect 41 0 24 0;
#X connect 41 1 44 0;
#X connect 41 1 50 0;
#X connect 42 0 0 0;
#X connect 43 0 42 0;
#X connect 44 0 46 0;
#X connect 47 0 1 1;
#X connect 49 0 0 0;
#X connect 50 0 47 1;
#X connect 52 0 53 0;
#X connect 53 0 51 0;
#X restore 574 112 pd guts;
#X obj 12 150 numberbox 300 200 mins xx -1 60 0;
#X obj 321 150 numberbox 300 200 secs xxx -10 60 0;
#X text 542 363 version a0.1;
#X obj 14 37 tgl 75 0 reset reset_r empty 17 7 0 10 -260097 -258113
-1 1 1;
#X text 15 361 Synclock by ixi-audio.net license GPL;
#X text 13 18 start;
#X text 142 20 reset_to;
#X obj 142 37 numberbox 150 75 reset_to_r reset_to -10000 10000 -10
;
