#N canvas 641 133 637 404 10;
#X declare -path syncjams;
#X declare -path syncjams;
#X text 14 133 mins;
#X text 320 132 secs;
#N canvas 2 61 924 567 guts 0;
#X obj 87 493 s mins;
#X obj 132 492 s secs;
#X msg 314 24 \; pd dsp 0;
#X obj 37 320 syncjams-tick;
#X floatatom 87 345 5 0 0 0 - - -, f 5;
#X floatatom 49 344 5 0 0 0 - - -, f 5;
#X obj 37 159 f;
#X obj 106 6 loadbang;
#X obj 106 29 delay 1000;
#X obj 509 15 declare -path syncjams;
#X text 162 5 count already running? get start tick;
#X obj 37 242 syncjams-state /reset;
#X msg 37 180 set-state /reset \$1;
#X obj 37 8 r reset;
#X obj 87 371 spigot 1;
#X msg 106 64 get-state /reset;
#X obj 37 33 select 1;
#X obj 160 295 moses 1;
#X text 212 66 < try to join a running chronometer if any;
#X msg 225 260 set \$1;
#X obj 225 283 s reset_r;
#X text 280 260 display state in GUI;
#X msg 225 175 1;
#X text 255 176 start ON;
#X text 223 304 COUNTDOWN;
#X obj 479 298 syncjams-tick;
#X floatatom 529 323 5 0 0 0 - - -, f 5;
#X floatatom 491 322 5 0 0 0 - - -, f 5;
#X msg 595 190 set-state /BPM \$1;
#X obj 37 209 syncjams \$0/syncer \, bpm 60 \, namespace syncjams \,
port 23232;
#X obj 479 146 loadbang;
#X obj 479 169 delay 1000;
#X msg 479 191 get-state /BPM;
#X obj 479 267 syncjams-state /BPM;
#X obj 479 224 syncjams \$0-tempo/syncer \, bpm 60 \, namespace syncjams-tempo
\, port 23232;
#X obj 529 378 spigot 1;
#X obj 529 499 s beat;
#X obj 590 315 s BPM;
#X obj 529 448 / 4;
#X text 559 451 in a 4/4;
#X obj 529 472 i;
#X obj 87 449 / 60;
#N canvas 914 149 450 300 countd 0;
#X obj 93 26 inlet;
#X obj 93 238 outlet;
#X obj 93 133 line;
#X obj 93 177 i;
#X msg 241 58 60000;
#X obj 241 80 /;
#X obj 241 36 t b f;
#X obj 241 110 * 4;
#X obj 93 69 i;
#X msg 93 104 4 \, 0 \$1;
#X msg 93 48 bang;
#X obj 241 11 r BPM;
#X connect 0 0 10 0;
#X connect 2 0 3 0;
#X connect 3 0 1 0;
#X connect 4 0 5 0;
#X connect 5 0 7 0;
#X connect 6 0 4 0;
#X connect 6 1 5 1;
#X connect 7 0 8 1;
#X connect 8 0 9 0;
#X connect 9 0 2 0;
#X connect 10 0 8 0;
#X connect 11 0 6 0;
#X restore 199 319 pd countd;
#X obj 199 345 select 0;
#X msg 199 382 1;
#X obj 87 470 i;
#X obj 147 449 * 60;
#X obj 132 470 -;
#X obj 136 397 f;
#X obj 87 415 -;
#X obj 544 406 f;
#X obj 529 426 -;
#X obj 489 500 s bar;
#X msg 639 285 set \$1;
#X msg 114 93 set-state /BPM 60;
#X obj 595 165 r metro_r;
#X obj 639 314 s metro_s;
#X msg 307 435 \; beat label \$1.;
#X msg 307 494 \; beat label;
#X obj 307 471 delay 100;
#X connect 3 1 5 0;
#X connect 3 2 4 0;
#X connect 4 0 6 1;
#X connect 4 0 14 0;
#X connect 4 0 48 1;
#X connect 6 0 12 0;
#X connect 7 0 8 0;
#X connect 7 0 2 0;
#X connect 7 0 22 0;
#X connect 7 0 54 0;
#X connect 8 0 15 0;
#X connect 8 0 2 0;
#X connect 11 0 3 0;
#X connect 11 1 17 0;
#X connect 11 1 19 0;
#X connect 12 0 29 0;
#X connect 13 0 16 0;
#X connect 14 0 49 0;
#X connect 15 0 29 0;
#X connect 16 0 6 0;
#X connect 16 1 12 0;
#X connect 17 0 14 1;
#X connect 17 0 35 1;
#X connect 17 0 1 0;
#X connect 17 0 0 0;
#X connect 17 1 42 0;
#X connect 19 0 20 0;
#X connect 22 0 19 0;
#X connect 25 1 27 0;
#X connect 25 2 26 0;
#X connect 26 0 35 0;
#X connect 26 0 50 1;
#X connect 28 0 34 0;
#X connect 29 0 11 0;
#X connect 30 0 31 0;
#X connect 31 0 32 0;
#X connect 32 0 34 0;
#X connect 33 0 25 0;
#X connect 33 1 37 0;
#X connect 33 1 53 0;
#X connect 34 0 33 0;
#X connect 35 0 51 0;
#X connect 38 0 40 0;
#X connect 40 0 36 0;
#X connect 40 0 52 0;
#X connect 41 0 45 0;
#X connect 42 0 43 0;
#X connect 42 0 57 0;
#X connect 43 0 44 0;
#X connect 43 0 48 0;
#X connect 43 0 50 0;
#X connect 43 0 59 0;
#X connect 44 0 35 1;
#X connect 44 0 14 1;
#X connect 45 0 0 0;
#X connect 45 0 46 0;
#X connect 46 0 47 1;
#X connect 47 0 1 0;
#X connect 48 0 49 1;
#X connect 49 0 41 0;
#X connect 49 0 47 0;
#X connect 50 0 51 1;
#X connect 51 0 38 0;
#X connect 53 0 56 0;
#X connect 54 0 29 0;
#X connect 55 0 28 0;
#X connect 59 0 58 0;
#X restore 465 358 pd guts;
#X obj 12 150 numberbox 300 200 mins xx -1 60 0;
#X obj 321 150 numberbox 300 200 secs xxx -10 60 0;
#X obj 14 37 tgl 75 0 reset reset_r empty 17 7 0 10 -260097 -258113
-1 38 1;
#X text 13 360 Synclock by ixi-audio.net license GPL;
#X text 13 18 start;
#X obj 548 11 tgl 15 0 empty NETCONNECT connected 17 7 0 10 -4034 -1
-1 1 1;
#X text 103 19 tempo;
#X obj 304 359 declare -path syncjams;
#X obj 433 36 bng 75 125 50 0 empty beat empty 25 37 0 42 -262144 -258113
-1;
#X obj 268 36 numberbox 150 75 bar bar_s 0 10000 0;
#X text 268 17 bar;
#X text 545 358 version a0.3;
#X obj 105 37 numberbox 150 75 metro_s metro_r 0 500 0 \;;
