#N canvas 119 299 638 417 10;
#X text 14 125 mins;
#X text 320 124 secs;
#N canvas 592 138 686 628 guts 1;
#X obj 19 41 netreceive -u -b 23232;
#X obj 19 102 oscparse;
#X obj 19 124 list trim;
#X obj 19 170 route v2;
#X obj 76 217 s secs;
#X obj 19 193 unpack f f;
#X obj 19 218 s mins;
#X obj 387 329 spigot 0;
#X obj 298 328 spigot 0;
#X obj 202 186 list prepend send;
#X obj 202 210 list trim;
#X obj 287 578 pipe 1;
#X obj 378 355 netsend -u -b;
#X obj 288 355 netsend -u -b;
#X msg 378 282 connect 192.168.43.255 23232;
#X msg 288 259 connect 255.255.255.255 23232;
#X obj 288 214 23232;
#X obj 477 329 spigot 0;
#X obj 468 355 netsend -u -b;
#X obj 288 236 t f f f;
#X msg 468 305 connect 127.0.0.1 23232;
#X obj 202 233 t a a a;
#X obj 468 377 t b f f;
#X obj 378 377 t b f f;
#X obj 287 418 pack 0 0 0;
#X obj 287 377 t f f;
#X obj 306 464 list split 1;
#X obj 388 464 t l;
#X obj 306 486 sel 1;
#X msg 374 508 0;
#X obj 287 556 f;
#X obj 287 440 t b a b;
#X obj 306 508 f;
#X obj 336 508 + 1;
#X obj 306 530 + 1;
#X obj 202 75 list split 1;
#X obj 202 118 list;
#X obj 202 97 t b a;
#X obj 202 164 oscformat -f si;
#X obj 202 143 list prepend v2;
#X msg 235 118 set /\$1;
#X obj 287 601 tgl 15 0 empty empty empty 17 7 0 10 -262144 -1 -1 0
1;
#X msg 333 214 disconnect;
#X obj 288 20 tgl 15 0 empty connect empty 17 7 0 10 -262144 -1 -1
0 1;
#X obj 288 80 select 1;
#X floatatom 394 100 5 0 0 0 - - -, f 5;
#X obj 394 125 / 60;
#X obj 394 149 int;
#X obj 451 149 -;
#X floatatom 501 100 5 0 0 0 - - -, f 5;
#X obj 467 121 * 60;
#X floatatom 467 100 5 0 0 0 - - -, f 5;
#X obj 394 36 metro 1000;
#X obj 394 15 tgl 15 0 empty go empty 17 7 0 10 -262144 -1 -1 0 1;
#X obj 371 75 bng 15 250 50 0 empty empty empty 17 7 0 10 -262144 -1
-1;
#X obj 438 75 + 1;
#X obj 451 194 pack f f;
#X obj 451 170 t b f;
#X msg 451 220 /time \$1 \$2;
#X text 562 282 <- android tether;
#X obj 485 6 bng 15 250 50 0 empty reset empty 17 7 0 10 -262144 -1
-1;
#X text 380 -1 start;
#X text 279 -2 connect;
#X obj 19 147 route time go reset;
#X msg 56 284 set \$1;
#X obj 56 308 s go_r;
#X text 504 2 reset;
#X obj 394 75 i -11;
#X msg 485 46 0;
#X obj 485 25 t b b;
#X obj 19 71 spigot 1;
#X obj 216 18 - 1;
#X obj 216 43 abs;
#X obj 394 176 s mins;
#X obj 493 149 s secs;
#X obj 512 46 i -10;
#X obj 539 22 r reset_to;
#X msg 112 500 \; pd dsp 0;
#X obj 113 460 loadbang;
#X obj 113 480 delay 1000;
#X connect 0 0 70 0;
#X connect 1 0 2 0;
#X connect 2 0 63 0;
#X connect 3 0 5 0;
#X connect 5 0 6 0;
#X connect 5 1 4 0;
#X connect 7 0 12 0;
#X connect 8 0 13 0;
#X connect 9 0 10 0;
#X connect 10 0 21 0;
#X connect 11 0 41 0;
#X connect 12 0 23 0;
#X connect 13 0 25 0;
#X connect 14 0 12 0;
#X connect 15 0 13 0;
#X connect 16 0 19 0;
#X connect 17 0 18 0;
#X connect 18 0 22 0;
#X connect 19 0 15 0;
#X connect 19 1 14 0;
#X connect 19 2 20 0;
#X connect 20 0 18 0;
#X connect 21 0 8 0;
#X connect 21 1 7 0;
#X connect 21 2 17 0;
#X connect 22 0 24 0;
#X connect 22 1 24 2;
#X connect 22 2 17 1;
#X connect 23 0 24 0;
#X connect 23 1 24 1;
#X connect 23 2 7 1;
#X connect 24 0 31 0;
#X connect 25 0 24 0;
#X connect 25 1 8 1;
#X connect 26 0 28 0;
#X connect 26 1 27 0;
#X connect 27 0 26 0;
#X connect 28 0 32 0;
#X connect 29 0 30 1;
#X connect 29 0 32 1;
#X connect 30 0 11 0;
#X connect 31 0 30 0;
#X connect 31 1 26 0;
#X connect 31 2 29 0;
#X connect 32 0 33 0;
#X connect 32 0 34 0;
#X connect 33 0 32 1;
#X connect 34 0 30 1;
#X connect 35 0 37 0;
#X connect 35 1 36 1;
#X connect 36 0 39 0;
#X connect 37 0 36 0;
#X connect 37 1 40 0;
#X connect 38 0 9 0;
#X connect 39 0 38 0;
#X connect 40 0 38 0;
#X connect 42 0 13 0;
#X connect 42 0 12 0;
#X connect 42 0 18 0;
#X connect 43 0 44 0;
#X connect 43 0 71 0;
#X connect 44 0 16 0;
#X connect 44 1 42 0;
#X connect 45 0 46 0;
#X connect 45 0 48 0;
#X connect 46 0 47 0;
#X connect 47 0 51 0;
#X connect 47 0 56 0;
#X connect 47 0 73 0;
#X connect 48 0 49 0;
#X connect 48 0 57 0;
#X connect 48 0 74 0;
#X connect 50 0 48 1;
#X connect 51 0 50 0;
#X connect 52 0 54 0;
#X connect 52 0 67 0;
#X connect 53 0 52 0;
#X connect 55 0 67 1;
#X connect 56 0 58 0;
#X connect 57 0 56 0;
#X connect 57 1 56 1;
#X connect 58 0 35 0;
#X connect 60 0 69 0;
#X connect 63 0 3 0;
#X connect 63 1 64 0;
#X connect 64 0 65 0;
#X connect 67 0 45 0;
#X connect 67 0 55 0;
#X connect 68 0 45 0;
#X connect 69 0 68 0;
#X connect 69 1 75 0;
#X connect 70 0 1 0;
#X connect 71 0 72 0;
#X connect 72 0 70 1;
#X connect 75 0 67 1;
#X connect 76 0 75 1;
#X connect 78 0 79 0;
#X connect 79 0 77 0;
#X restore 480 358 pd guts;
#X obj 12 148 numberbox 300 200 mins xx -1 60 0;
#X obj 321 148 numberbox 300 200 secs xxx -10 60 0;
#X text 542 359 version a0.1;
#X obj 12 35 tgl 75 0 connect connect_r empty 17 7 0 10 -4034 -260097
-1 0 1;
#X obj 93 35 tgl 75 0 go go_r empty 17 7 0 10 -260097 -4034 -1 0 1
;
#X text 95 13 start;
#X obj 176 35 bng 75 250 50 0 reset empty empty 17 7 0 10 -258113 -1
-1;
#X text 175 12 reset;
#X text 15 357 Synclock by ixi-audio.net license GPL.;
#X text 12 12 master;
#X text 261 12 reset_to;
#X obj 262 35 numberbox 150 75 reset_to_r reset_to -10000 10000 -10
;
